<svg xmlns="http://www.w3.org/2000/svg" width="335pt" height="122pt" viewBox="0 0 335 122"><g id="#ffffffff"></g><g id="#4285f4ff"><path fill="#4285f4" opacity="1.00" d=" M 50.85 20.76 C 62.97 15.98 77.62 18.72 86.94 27.89 C 84.75 30.11 82.54 32.32 80.32 34.52 C 70.72 25.24 53.75 25.80 45.02 35.98 C 39.92 41.56 37.69 49.53 38.92 56.96 C 40.17 65.64 46.40 73.40 54.66 76.38 C 63.65 79.68 74.89 77.78 81.29 70.33 C 84.09 67.20 85.01 63.00 85.86 59.01 C 78.24 58.99 70.62 59.00 63.00 59.00 C 63.00 56.00 63.00 53.00 63.00 50.00 C 73.71 50.00 84.41 50.01 95.11 49.99 C 96.39 59.87 94.35 70.86 86.99 78.03 C 76.78 88.63 59.39 90.01 46.74 83.16 C 35.80 77.38 28.23 65.45 28.37 52.98 C 28.12 38.90 37.75 25.60 50.85 20.76 Z"></path><path fill="#4285f4" opacity="1.00" d=" M 211.88 43.61 C 217.85 41.87 224.43 43.68 228.81 48.04 C 228.78 46.70 228.74 45.35 228.71 44.01 C 231.81 44.01 234.90 43.99 238.00 44.00 C 237.98 57.67 238.04 71.33 237.98 85.00 C 237.96 91.96 235.56 99.51 229.58 103.60 C 221.85 108.76 210.63 108.51 203.43 102.48 C 200.65 100.30 198.79 97.27 197.14 94.21 C 199.94 93.02 202.75 91.85 205.57 90.71 C 206.88 92.61 207.97 94.75 209.91 96.11 C 215.03 100.17 223.96 99.06 227.08 93.02 C 228.92 89.71 228.66 85.82 228.83 82.18 C 226.06 84.68 222.81 86.88 218.98 87.20 C 207.63 88.70 196.75 79.18 195.64 68.01 C 194.07 57.34 201.38 46.20 211.88 43.61 M 213.34 52.52 C 207.11 54.87 204.06 62.31 205.59 68.58 C 206.84 75.29 214.19 80.32 220.87 78.11 C 228.44 75.84 231.18 66.26 228.35 59.43 C 226.29 53.53 219.21 50.00 213.34 52.52 Z"></path></g><g id="#34a853ff"><path fill="#34a853" opacity="1.00" d=" M 244.00 21.00 C 247.00 21.00 250.00 21.00 253.00 21.00 C 253.00 42.67 253.00 64.33 253.00 86.00 C 250.00 86.00 247.00 86.00 244.00 86.00 C 244.00 64.33 244.00 42.67 244.00 21.00 Z"></path></g><g id="#ea4335ff"><path fill="#ea4335" opacity="1.00" d=" M 116.39 43.55 C 124.51 41.68 133.66 44.52 138.89 51.11 C 145.79 59.46 145.27 72.90 137.62 80.62 C 130.46 88.23 117.83 89.51 109.17 83.75 C 99.65 77.88 96.55 64.42 101.75 54.69 C 104.64 49.03 110.20 44.90 116.39 43.55 M 117.36 52.45 C 112.23 54.24 108.93 59.60 108.99 64.94 C 108.53 72.07 114.65 79.09 122.00 78.58 C 130.02 78.46 135.50 69.76 133.73 62.28 C 132.69 54.91 124.41 49.66 117.36 52.45 Z"></path><path fill="#ea4335" opacity="1.00" d=" M 260.92 51.97 C 266.42 43.45 278.78 40.30 287.56 45.49 C 292.85 48.52 296.04 54.02 298.02 59.61 C 288.07 63.71 278.13 67.83 268.19 71.97 C 270.33 75.51 273.75 78.56 278.12 78.58 C 282.99 79.16 287.30 76.27 290.14 72.57 C 292.70 74.20 295.17 75.94 297.69 77.63 C 294.67 81.37 290.94 84.73 286.27 86.21 C 278.16 88.93 268.47 86.74 262.74 80.27 C 255.80 72.71 255.25 60.40 260.92 51.97 M 274.34 52.40 C 269.41 54.27 266.65 59.41 266.56 64.51 C 273.34 61.81 280.07 58.97 286.79 56.12 C 284.23 52.01 278.74 50.41 274.34 52.40 Z"></path></g><g id="#fbbc05ff"><path fill="#fbbc05" opacity="1.00" d=" M 163.47 43.78 C 171.82 41.48 181.47 44.24 186.89 51.10 C 193.82 59.47 193.28 72.94 185.60 80.66 C 179.11 87.51 168.16 89.26 159.72 85.17 C 152.04 81.68 147.00 73.38 147.27 64.98 C 147.03 55.28 154.06 46.09 163.47 43.78 M 165.36 52.43 C 160.19 54.23 156.88 59.65 156.98 65.02 C 156.57 72.13 162.68 79.10 170.00 78.58 C 178.07 78.47 183.56 69.66 181.71 62.16 C 180.61 54.85 172.38 49.67 165.36 52.43 Z"></path></g></svg>