<svg xmlns="http://www.w3.org/2000/svg" xmlns:xlink="http://www.w3.org/1999/xlink" id="Layer_1" style="enable-background:new 0 0 200 200;" viewBox="0 0 200 200" xml:space="preserve"><g><g><polygon points="176.4,89.4 166.4,89.4 159.4,89.4 115.6,89.4 102.6,83.6 102.6,73.9 95.6,73.9 95.6,80.4 71.5,69.6 23.6,91.2      26.5,97.5 34.7,93.8 34.7,130.4 74.8,130.4 74.8,112.4 67.8,112.4 67.8,123.4 41.7,123.4 41.7,90.7 71.5,77.3 114.1,96.4      159.4,96.4 159.4,105.4 166.4,105.4 166.4,96.4 176.4,96.4    "></polygon><polygon points="127.1,123.4 81.8,123.4 81.8,130.4 134.1,130.4 134.1,119.4 159.4,119.4 159.4,130.4 166.4,130.4 166.4,112.4      127.1,112.4    "></polygon></g></g></svg>