<svg xmlns="http://www.w3.org/2000/svg" xmlns:xlink="http://www.w3.org/1999/xlink" height="512px" id="Layer_1" viewBox="0 0 512 512" width="512px" xml:space="preserve"><g><g><path d="M356,445.385H156c-12.131,0-22-9.869-22-22v-314c0-12.131,9.869-22,22-22h41c5.523,0,10,4.477,10,10v9.69    c0,0.313,0.701,1.08,2,1.08h94c1.299,0,2-0.767,2-1.08v-9.69c0-5.523,4.477-10,10-10h41c12.131,0,22,9.869,22,22v314    C378,435.516,368.131,445.385,356,445.385z M156,107.385c-1.103,0-2,0.897-2,2v314c0,1.103,0.897,2,2,2h200c1.103,0,2-0.897,2-2    v-314c0-1.103-0.897-2-2-2h-31.002c-0.174,11.481-9.975,20.771-21.998,20.771h-94c-12.023,0-21.824-9.29-21.998-20.771H156z"></path></g><g><path d="M303,128.155h-94c-12.131,0-22-9.457-22-21.08v-19.38c0-11.624,9.869-21.08,22-21.08h94c12.131,0,22,9.457,22,21.08v19.38    C325,118.699,315.131,128.155,303,128.155z M209,86.615c-1.299,0-2,0.767-2,1.08v19.38c0,0.313,0.701,1.08,2,1.08h94    c1.299,0,2-0.767,2-1.08v-19.38c0-0.313-0.701-1.08-2-1.08H209z"></path></g><g><path d="M355.906,167.385H157.723c-12.158,0-22.049-9.869-22.049-22v-35.5c0-12.131,9.891-22,22.049-22h38.528    c5.523,0,10,4.477,10,10v9.19c0,0.33,0.774,1.08,2.05,1.08h94.388c1.275,0,2.049-0.75,2.049-1.08v-9.19c0-5.523,4.477-10,10-10    h41.168c12.158,0,22.05,9.869,22.05,22v35.5C377.956,157.516,368.064,167.385,355.906,167.385z M157.723,107.885    c-1.13,0-2.049,0.897-2.049,2v35.5c0,1.103,0.919,2,2.049,2h198.183c1.13,0,2.05-0.897,2.05-2v-35.5c0-1.103-0.919-2-2.05-2    h-31.185c-0.446,11.25-10.159,20.271-22.033,20.271h-94.388c-11.875,0-21.587-9.021-22.034-20.271H157.723z"></path></g><g><path d="M239.75,330.885c-2.559,0-5.119-0.976-7.071-2.929l-24.5-24.5c-3.905-3.905-3.905-10.237,0-14.143s10.237-3.905,14.143,0    l17.429,17.429l51.929-51.929c3.905-3.905,10.237-3.905,14.143,0s3.905,10.237,0,14.143l-59,59    C244.869,329.909,242.309,330.885,239.75,330.885z"></path></g></g></svg>