<svg xmlns="http://www.w3.org/2000/svg" xmlns:xlink="http://www.w3.org/1999/xlink" height="512px" style="enable-background:new 0 0 512 512;" viewBox="0 0 512 512" width="512px" xml:space="preserve"><g id="_x34_47_x2C__Cloud_x2C__connection_x2C__energy_x2C__network_x2C__power"><g><path d="M205.072,109.197l-0.826,0.029c-11.736,0-22.378,4.754-30.07,12.43    c-7.689,7.705-12.458,18.333-12.458,30.084c0,1.181,0.06,2.332,0.133,3.395l0.016,0.119c0.102,1.209,0.235,2.391,0.413,3.483    l0.06,0.649c-0.045,1.978-1.699,3.572-3.69,3.543h-0.311c-11.735,0-22.364,4.754-30.069,12.459    c-7.41,7.41-12.104,17.565-12.429,28.814l1.388-1.182l0.191-0.148l0.044-0.028l0.163-0.147l1.402-1.094l0.03-0.029l0.207-0.147    c0.811-0.619,1.637-1.21,2.479-1.771l0.06-0.029l0.206-0.148c5.934-3.927,12.636-6.791,19.811-8.326l0.354-0.059h0.028    l0.325-0.088l0.354-0.059l0,0l0.354-0.06l0.311-0.06h0.044l0.354-0.088l0.294-0.029l0.06-0.03l0.354-0.059l0.265-0.03h0.09    l0.354-0.059l0.235-0.06h0.118l0.37-0.059l0.221-0.029h0.133l0.369-0.06l0.177-0.029h0.177l0.354-0.059h0.177l0.191-0.029    l0.369-0.03l0.133-0.03h0.221l0.37-0.059h0.102h0.267l0.354-0.059h0.087h0.281l0.369-0.029h0.06l0.311-0.03h0.369h0.03    l0.339-0.028h0.37c2.76-12.578,9.623-23.619,19.086-31.649c10.081-8.532,23.115-13.698,37.346-13.698    c5.417,0,10.672,0.767,15.691,2.154c4.015,1.152,7.853,2.688,11.455,4.636c5.845-8.325,13.522-15.264,22.438-20.223    c9.625-5.315,20.68-8.356,32.415-8.356c18.497,0,35.235,7.5,47.356,19.635c4.222,4.191,7.868,8.973,10.834,14.199l0.311,0.531    l0.104,0.178l0.752,1.418l0.295,0.53l0.074,0.177l0.297,0.561l0.057,0.148l0.295,0.591l0.074,0.147l0.281,0.59l0.059,0.148    l0.266,0.59l0.074,0.147l0.266,0.591l0.061,0.148l0.265,0.59l0.044,0.146l0.267,0.621l0.058,0.118l0.237,0.619l0.06,0.147    l0.235,0.621l0.06,0.147l0.234,0.62l0.047,0.117l0.234,0.65l0.044,0.118l0.223,0.679l0.044,0.117l0.207,0.65l0.044,0.117    l0.222,0.68l0.029,0.089l0.207,0.679l0.028,0.117l0.207,0.68l0.016,0.119l0.191,0.678l0.03,0.09l0.177,0.709l0.03,0.087    l0.177,0.709l0.028,0.118l0.163,0.709l0.014,0.088l0.177,0.708l0.017,0.09l0.147,0.737l0.014,0.089l0.147,0.738l0.016,0.059    l0.132,0.769l0.029,0.059l0.12,0.738l0.014,0.088l0.118,0.768l0.016,0.06l0.117,0.768v0.059l0.104,0.769l0.014,0.059l0.09,0.797    v0.029l0.088,0.797v0.03l0.09,0.827v0.029l0.058,0.797v0.029l0.06,0.826v0.03l0.06,0.827v0.029l0.028,0.826v0.029l0.029,0.827    v0.029l0.016,0.856l0,0l0.015,0.855c0,1.564-0.06,3.159-0.177,4.783l0.089-0.029l0.118-0.03l0.104-0.029l0.104-0.03l0.104-0.028    l0.104-0.03l0.102-0.029l0.104-0.059l0.119-0.029l0.088-0.029l0.117-0.03l0,0l0.09-0.03l0.117-0.029l0,0l0.104-0.029l0.104-0.029    l0.104-0.029l0.104-0.029l0.117-0.03l0.088-0.029l0.119-0.03l0,0l0.104-0.028l0.104-0.03l0.102-0.029h0.016l0.088-0.029    l0.119-0.029l0.088-0.03h0.015h0.104l0.104-0.028l0.104-0.03l0,0l0.104-0.03h0.014l0.09-0.029l0.117-0.029l0.104-0.029    l0.104-0.029l0,0l0.104-0.029h0.014l0.09-0.03l0.117-0.028h0.104l0.104-0.03l0,0l0.104-0.029h0.014l0.09-0.03h0.014l0.104-0.029    l0,0l0.104-0.029h0.104l0.117-0.029l0.104-0.029l0.104-0.029l0.118-0.03l0.088-0.03h0.119l0.104-0.029l0.104-0.029l0.117-0.029    l0.104-0.029h0.104l0.104-0.029l0.102-0.03l0.119-0.03h0.104l0.102-0.028l0,0l0.12-0.029l0.104-0.03h0.104l0.118-0.029    c4.205-0.826,8.561-1.27,12.975-1.27h0.738h0.133l0.604,0.029h0.252h0.487l0.368,0.029h0.371l0.485,0.03h0.237l0.619,0.06h0.119    l0.737,0.058l0,0l0.723,0.06h0.134l0.592,0.061l0.25,0.028l0.457,0.06l0.384,0.029l0.354,0.029l0.488,0.059l0.221,0.029    l0.619,0.09l0.09,0.029l0.723,0.088h0.014l0.695,0.117l0.132,0.03l0.575,0.09l0.251,0.058l0.458,0.06l0.369,0.089l0.324,0.059    l0.504,0.089l0.205,0.059l2.081,0.474l0.134,0.028l0.561,0.147l0.68,0.178l0.368,0.089l0.311,0.088    c11.322,3.13,21.448,9.123,29.522,17.212l0.192,0.207l0.281,0.295l0.442,0.442l0.384,0.414l0.028,0.03l0.428,0.472l0.429,0.442    l0.207,0.236l0.207,0.236l0.813,0.915l0.044,0.03l0.354,0.441c5.755,6.821,10.185,14.791,12.856,23.501    c4.413-3.454,8.104-7.764,10.88-12.694c3.424-6.112,5.387-13.197,5.387-20.756c0-5.875-1.181-11.454-3.292-16.502    c-2.185-5.167-5.402-9.861-9.357-13.758c-0.975-0.857-1.462-2.186-1.182-3.514c0.385-1.742,0.68-3.482,0.856-5.195v-0.089    c0.178-1.713,0.266-3.515,0.266-5.403c0-13.787-5.551-26.305-14.54-35.397l-0.191-0.177c-9.094-9.094-21.699-14.732-35.576-14.732    c-3.365,0-6.642,0.324-9.771,0.945c-3.263,0.619-6.391,1.564-9.328,2.773c-0.592,0.237-1.271,0.325-1.95,0.237    c-1.964-0.325-3.306-2.155-2.997-4.134c0.193-1.27,0.354-2.627,0.474-4.073c0.104-1.271,0.161-2.599,0.161-4.016    c0-13.817-5.564-26.335-14.554-35.397l-0.207-0.178c-9.093-9.123-21.685-14.762-35.575-14.762c-8.856,0-17.167,2.273-24.356,6.26    c-7.44,4.133-13.743,10.096-18.274,17.3l-0.029,0.03c-1.034,1.711-3.278,2.242-4.975,1.209c-3.292-2.008-6.865-3.601-10.658-4.664    c-3.631-1.033-7.514-1.564-11.543-1.564c-10.481,0-20.076,3.779-27.472,10.067c-7.528,6.348-12.813,15.322-14.496,25.478    C208.394,107.898,206.874,109.227,205.072,109.197 M308.787,329.764l-2.524,31.56h94.739c13.965,0,26.614-5.638,35.751-14.791    c0.753-0.767,1.506-1.535,2.215-2.362H337.41c-2.01,0-3.633-1.623-3.633-3.63c0-1.979,1.623-3.632,3.633-3.632h106.873    c4.62-7.617,7.276-16.563,7.276-26.128c0-6.997-1.401-13.61-3.927-19.604c-2.613-6.229-6.45-11.81-11.204-16.474    c-0.914-0.855-1.388-2.125-1.121-3.425c0.442-2.095,0.797-4.192,1.018-6.317c0.223-2.008,0.324-4.163,0.324-6.377    c0-4.459-0.485-8.798-1.401-12.961l-0.015-0.059l-0.016-0.03c-0.93-4.222-2.316-8.267-4.089-12.074l-0.043-0.118    c-0.385-0.827-0.797-1.653-1.241-2.48l-0.161-0.325l-0.163-0.294l-0.147-0.267l-0.207-0.384l-0.088-0.146l-0.267-0.473    l-0.044-0.09l-0.309-0.531l0,0l-0.325-0.531l-0.029-0.059l-0.297-0.473l-0.088-0.147l-0.236-0.384l-0.147-0.236l-0.191-0.295    l-0.191-0.295l-0.149-0.236l-0.251-0.355l-0.102-0.146l-0.297-0.443l-0.058-0.088l-0.354-0.502l0,0l-0.354-0.502l-0.06-0.088    l-0.324-0.414l-0.739-1.004l-0.221-0.295l-0.162-0.207l-0.28-0.354l-0.104-0.118l-0.354-0.414l-0.044-0.088l-0.398-0.471l0,0    l-0.414-0.474l-0.058-0.089l-0.341-0.384l-0.117-0.147l-0.295-0.324l-0.178-0.207l-0.236-0.236l-0.251-0.266l-0.178-0.207    l-0.311-0.324l-0.102-0.119l-0.384-0.383l-0.06-0.059l-0.442-0.443v-0.029l-0.03-0.029l-0.147-0.119    c-6.908-6.908-15.485-12.133-25.08-14.997l-0.104-0.029l-1.416-0.414l-0.295-0.087l-0.414-0.09l-0.207-0.059l-0.502-0.119    l-0.737-0.178l0,0l-0.621-0.146l-0.088-0.029l-0.532-0.088l-0.207-0.061h-0.043l-1.418-0.265l-0.205-0.06l-0.532-0.088h-0.104    l-0.636-0.119l0,0l-0.633-0.088h-0.119l-0.531-0.089l-0.206-0.028l-0.429-0.061l-0.311-0.029l-0.324-0.029l-0.441-0.059h-0.207    l-0.532-0.06h-0.118l-0.65-0.059l-0.649-0.06h-0.118l-0.531-0.029h-0.221l-0.428-0.029l-0.325-0.03h-0.339h-0.428l-0.237-0.028    h-0.546h-0.104h-0.664c-3.972,0-7.867,0.383-11.588,1.121l-0.177,0.029l-0.177,0.029l-0.178,0.06h-0.016l-0.178,0.03l0,0    l-0.177,0.029l0,0l-0.175,0.029h-0.017l-0.161,0.059h-0.016l-0.162,0.029h-0.016l-0.161,0.03h-0.016l-0.161,0.059h-0.017    l-0.161,0.028h-0.016l-0.162,0.03l-0.016,0.03l-0.161,0.029h-0.016l-0.161,0.03h-0.015l-0.163,0.058h-0.014l-0.164,0.029h-0.014    l-0.148,0.061h-0.029l-0.146,0.029h-0.03l-0.147,0.059h-0.029l-0.147,0.029h-0.03l-0.147,0.061h-0.029l-0.147,0.028l-0.03,0.028    l-0.147,0.03h-0.029l-0.147,0.06h-0.03l-0.133,0.03h-0.044l-0.134,0.058h-0.043l-0.134,0.06h-0.044l-0.117,0.03h-0.045    l-0.133,0.059h-0.044l-0.134,0.029l-0.043,0.029l-0.134,0.029l-0.03,0.03l-0.146,0.029h-0.03l-0.132,0.059h-0.045l-0.118,0.03    l-0.06,0.029l-0.117,0.029l-0.061,0.029l-0.117,0.029h-0.044l-0.134,0.06h-0.029l-0.131,0.06h-0.047l-0.117,0.059h-0.06    l-0.117,0.029l-0.058,0.029l-0.12,0.03l-0.044,0.029l-0.117,0.03l-0.046,0.028l-0.117,0.03l-0.058,0.029l-0.119,0.029    l-0.059,0.029l-0.104,0.029l-0.074,0.029l-0.089,0.03l-0.073,0.03l-0.104,0.029l-0.059,0.029l-0.119,0.029l-0.059,0.029    l-0.104,0.029l-0.059,0.03l-0.104,0.028l-0.059,0.03l-0.119,0.029l-0.058,0.03l-0.104,0.029l-0.074,0.029l-0.089,0.029    l-0.074,0.029l-0.088,0.029l-0.073,0.03l-0.09,0.03l-0.087,0.029l-0.09,0.059h-0.061l-0.102,0.059l-0.073,0.03l-0.089,0.028    l-0.074,0.03l-0.088,0.029l-0.075,0.03l-0.088,0.029l-0.088,0.029l-0.089,0.029l-0.061,0.029l-0.088,0.06l-0.089,0.03    l-0.088,0.029l-0.073,0.029l-0.074,0.028l-0.09,0.03l-0.058,0.029h-0.03l-0.029,0.03h-0.06l-0.058,0.028h-0.03l-0.015,0.03h-0.059    h-0.016l-0.045,0.028l-0.117,0.03h-0.014l-0.164,0.03h-0.014l-0.06,0.029h-0.03h-0.029h-0.058l0,0h-0.06l-0.03,0.029h-0.03h-0.057    l0,0h-0.061h-0.029h-0.03h-0.058l0,0h-0.06h-0.03h-0.044h-0.044h-0.029h-0.061h-0.057h-0.03h-0.03H352.6h-0.017h-0.058h-0.016    l-0.059-0.029h-0.029h-0.029h-0.061h-0.014h-0.074l-0.016-0.029h-0.058h-0.03l-0.059-0.03h-0.029h-0.059l-0.03-0.03h-0.06    l-0.205-0.059l-0.03-0.028h-0.06l-0.029-0.03h-0.045l-0.043-0.029l-0.045-0.03h-0.029l-0.163-0.087l-0.044-0.03h-0.014    l-0.061-0.03h-0.029l-0.06-0.029l-0.088-0.059l-0.06-0.059h-0.014l-0.044-0.03l-0.03-0.029l-0.06-0.03l0,0l-0.058-0.059h-0.03    l-0.044-0.059h-0.016l-0.06-0.059l0,0l-0.058-0.029l-0.016-0.03l-0.045-0.03l-0.014-0.029l-0.043-0.029l-0.03-0.029l-0.03-0.059    h-0.029l-0.03-0.06h-0.03l-0.027-0.059l-0.029-0.03l-0.03-0.029l-0.03-0.029l-0.029-0.029l-0.03-0.029l-0.028-0.06l-0.016-0.03    l-0.029-0.029l-0.028-0.029l-0.016-0.029l-0.03-0.059l-0.027-0.03l-0.03-0.028l-0.016-0.03l-0.03-0.06l-0.014-0.029l-0.029-0.029    l-0.015-0.029l-0.03-0.059l-0.014-0.03l-0.029-0.06v-0.029l-0.03-0.059h-0.015l-0.029-0.06l-0.016-0.03l-0.03-0.058v-0.03    l-0.028-0.029v-0.029l-0.016-0.029l-0.014-0.059l0,0l-0.029-0.09l0,0l-0.015-0.058l-0.016-0.03v-0.029l-0.015-0.061h-0.016v-0.057    l-0.014-0.03l-0.016-0.03v-0.029v-0.029l-0.014-0.059l0,0l-0.015-0.061v-0.029l-0.016-0.029v-0.059l0,0l-0.015-0.06v-0.03v-0.028    v-0.059l0,0l-0.029-0.06v-0.029v-0.029v-0.059l0,0v-0.061v-0.029v-0.059v-0.059l0,0v-0.06v-0.028v-0.03v-0.06l0,0v-0.059v-0.029    l0.014-0.029l0.016-0.061l0,0v-0.059v-0.029v-0.029l0.015-0.06l0.016-0.058v-0.03l0.028-0.118v-0.029v-0.118l0.016-0.03    l0.014-0.029v-0.029v-0.06l0,0l0.016-0.058v-0.03l0.015-0.06l0,0v-0.059v-0.029l0.016-0.06h0.015v-0.059l0,0v-0.089l0,0    l0.014-0.06h0.016v-0.088l0,0l0.014-0.118l0,0l0.03-0.236l0,0l0.014-0.06l0,0l0.017-0.147l0,0l0.014-0.059v-0.029v-0.059l0,0    l0.016-0.061V197.5l0.014-0.059l0,0v-0.059v-0.029v-0.059h0.016l0.015-0.061v-0.029v-0.059l0,0l0.014-0.059v-0.03l0.017-0.06    v-0.028v-0.03v-0.029v-0.059v-0.03l0.014-0.028v-0.03l0.016-0.06v-0.029v-0.029v-0.029v-0.06l0.014-0.03v-0.028l0.015-0.06v-0.029    v-0.029v-0.03v-0.058l0.016-0.03v-0.03l0.015-0.029v-0.059v-0.029v-0.029v-0.03v-0.059l0.016-0.029v-0.06l0.014-0.029v-0.03    v-0.028v-0.06v-0.03l0.014-0.059l0,0v-0.059l0.016-0.029v-0.061l0,0v-0.059v-0.028v-0.06l0.015-0.03v-0.058l0,0l0.016-0.061    v-0.029v-0.059l0,0v-0.089l0,0l0.015-0.059v-0.03l0.016-0.059l0,0v-0.088l0,0v-0.059l0,0l0.014-0.09l0,0l0.014-0.088    c0.119-1.506,0.178-3.13,0.178-4.783v-0.768l0,0l-0.03-0.768l0,0l-0.014-0.768l0,0l-0.044-0.768l0,0l-0.029-0.738v-0.029    l-0.061-0.738v-0.029l-0.058-0.738l0,0l-0.073-0.738v-0.029l-0.074-0.708v-0.03l-0.09-0.737l-0.014-0.03l-0.09-0.707l-0.014-0.03    l-0.09-0.709l-0.014-0.03l-0.104-0.708l-0.014-0.028l-0.104-0.709l-0.03-0.03l-0.118-0.679v-0.059l-0.148-0.68v-0.059    l-0.147-0.649l-0.015-0.089l-0.133-0.65l-0.029-0.059l-0.148-0.65l-0.029-0.087l-0.147-0.62l-0.028-0.089l-0.163-0.62    l-0.014-0.089l-0.177-0.62l-0.03-0.088l-0.177-0.62l-0.03-0.088l-0.178-0.621l-0.03-0.088l-0.19-0.62l-0.03-0.089l-0.191-0.591    l-0.029-0.088l-0.207-0.59l-0.044-0.119l-0.207-0.59l-0.044-0.088l-0.207-0.592l-0.044-0.088l-0.222-0.591l-0.029-0.089    l-0.236-0.561l-0.045-0.118l-0.236-0.561l-0.044-0.118l-0.235-0.561l-0.06-0.119l-0.237-0.53l-0.057-0.118l-0.237-0.532    l-0.06-0.118l-0.251-0.531l-0.058-0.118l-0.252-0.532l-0.059-0.117l-0.266-0.531l-0.06-0.118l-0.265-0.531l-0.074-0.118    l-0.281-0.502l-0.059-0.148l-0.281-0.501l-0.074-0.118l-0.28-0.502l-0.073-0.118l-0.281-0.501l-0.074-0.119l-0.294-0.502    l-0.088-0.118l-0.28-0.472l-0.09-0.148l-0.295-0.472l-0.104-0.147l-0.295-0.443l-0.088-0.148l-0.297-0.441l-0.104-0.147    l-0.309-0.444l-0.09-0.177l-0.309-0.413l-0.104-0.146l-0.311-0.444l-0.104-0.147l-0.324-0.412l-0.117-0.178l-0.295-0.414    l-0.119-0.146l-0.325-0.414l-0.118-0.147l-0.324-0.413l-0.133-0.147l-0.311-0.414l-0.148-0.147l-0.324-0.385l-0.117-0.176    l-0.324-0.383l-0.148-0.148l-0.324-0.384l-0.147-0.147l-0.324-0.385l-0.149-0.146l-0.324-0.385l-0.162-0.147l-0.34-0.354    l-0.147-0.178l-0.339-0.354l-0.163-0.147l-0.339-0.354l-0.016-0.029l-0.178-0.118c-2.523-2.539-5.283-4.841-8.236-6.909l0,0    l-1.182-0.796l0,0l-0.605-0.384h-0.014l-0.591-0.385l0,0l-0.62-0.383l0,0l-1.238-0.738l0,0l-0.635-0.355l0,0l-0.636-0.354l0,0    l-0.62-0.324h-0.016l-0.633-0.354l0,0l-0.651-0.325l-0.649-0.324l-0.648-0.295l0,0l-0.664-0.295h-0.016l-0.648-0.296l0,0    l-0.68-0.296l0,0l-0.664-0.265l0,0l-0.678-0.296l-0.68-0.266l-0.68-0.236h-0.016l-0.679-0.266l-0.693-0.236l-0.692-0.236    l-0.695-0.207l-0.709-0.205l0,0l-0.693-0.207h-0.014l-0.709-0.207l-0.709-0.177l-0.724-0.177l-0.708-0.178h-0.015l-0.725-0.178    l0,0l-0.723-0.146l-0.724-0.148l-0.738-0.118l-0.737-0.147l-0.738-0.118l-0.739-0.118l-0.753-0.089l-0.752-0.088l-0.737-0.089    l-0.769-0.059l-0.753-0.06l-0.753-0.059l-0.767-0.03l-0.769-0.059h-0.767l-0.768-0.029h-0.769c-10.509,0-20.37,2.686-28.902,7.41    l-0.414,0.236l0,0l-0.412,0.235l0,0l-0.398,0.237h-0.016l-0.383,0.236h-0.029l-0.385,0.235l-0.014,0.03l-0.37,0.235h-0.03    l-0.383,0.236l-0.029,0.03l-0.369,0.235h-0.029l-0.37,0.236l-0.028,0.03l-0.354,0.235l-0.046,0.03l-0.353,0.236l-0.045,0.029    l-0.338,0.236l-0.044,0.028l-0.354,0.237l-0.03,0.029l-0.34,0.235l-0.044,0.03l-0.339,0.236l-0.06,0.029l-0.325,0.236    l-0.044,0.059l-0.325,0.236l-0.06,0.029l-0.324,0.236l-0.06,0.059l-0.309,0.236l-0.074,0.061l-0.296,0.234l-0.074,0.061    l-0.295,0.235L253.18,143l-0.295,0.268l-0.074,0.059l-0.296,0.236l-0.074,0.06l-0.279,0.235l-0.076,0.059l-0.295,0.236    l-0.074,0.059l-0.281,0.237l-0.087,0.088l-0.267,0.237l-0.087,0.059l-0.265,0.236l-0.089,0.088l-0.251,0.236l-0.104,0.06    l-0.235,0.235l-0.104,0.09l-0.251,0.235l-0.089,0.089l-0.265,0.236l-0.089,0.088l-0.235,0.236l-0.104,0.088l-0.237,0.237    l-0.104,0.088l-0.235,0.237l-0.104,0.088l-0.221,0.236l-0.119,0.117l-0.206,0.207l-0.119,0.118l-0.206,0.237l-0.119,0.117    l-0.207,0.207l-0.118,0.117l-0.207,0.237l-0.118,0.117l-0.207,0.207l-0.118,0.147l-0.191,0.207l-0.12,0.147l-0.191,0.206    l-0.118,0.119l-0.207,0.235l-0.118,0.118l-0.177,0.235l-0.119,0.148l-0.191,0.206l-0.133,0.148l-0.162,0.206l-0.133,0.147    l-0.177,0.207l-0.118,0.147l-0.177,0.207l-0.117,0.177l-0.177,0.207l-0.12,0.148l-0.177,0.205l-0.118,0.178l-0.161,0.207    l-0.133,0.147l-0.147,0.206l-0.147,0.178l-0.149,0.207l-0.118,0.178l-0.147,0.205l-0.147,0.178l-0.133,0.178l-0.132,0.205    l-0.149,0.178l-0.132,0.207l-0.133,0.178l-0.147,0.207l-0.117,0.177l-0.149,0.206l-0.118,0.178l-0.147,0.236l-0.117,0.146    l-0.147,0.237l-0.104,0.177l-0.147,0.207l-0.104,0.176l-0.147,0.236l-0.119,0.178l0,0l-0.118,0.178    c-1.034,1.713-3.262,2.271-4.961,1.211c-1.358-0.828-2.73-1.566-4.162-2.275l0,0l-0.177-0.087l0,0l-0.398-0.207l-0.191-0.089l0,0    l-0.207-0.088l0,0l-0.191-0.09l-0.193-0.088l-0.207-0.089l-0.382-0.177l-0.207-0.089l-0.191-0.088h-0.016l-0.191-0.089    l-0.193-0.06v-0.028l-0.206-0.061l0,0l-0.207-0.088l-0.191-0.089l-0.207-0.088l-0.193-0.06l-0.205-0.088l-0.207-0.09l-0.207-0.059    l-0.207-0.088l-0.206-0.061l-0.193-0.088l-0.207-0.089l-0.206-0.058L225,154.662l-0.207-0.088l-0.191-0.059l-0.221-0.089    l-0.207-0.059l-0.207-0.06l-0.208-0.059l-0.207-0.09l-0.205-0.059l-0.221-0.059l-0.207-0.06l-0.207-0.059l-0.207-0.059    l-0.207-0.09l-0.206-0.058c-4.341-1.211-8.945-1.86-13.743-1.86c-12.458,0-23.87,4.517-32.668,11.957    c-8.944,7.587-15.233,18.244-17.21,30.319l-0.016,0.059h-0.014v0.09l0,0l-0.016,0.088h-0.014l-0.014,0.06v0.028l-0.016,0.06v0.03    l-0.03,0.059v0.029l-0.028,0.029v0.029l-0.016,0.061l-0.014,0.029l-0.016,0.029l-0.014,0.059l-0.016,0.029l-0.014,0.059h-0.014    l-0.016,0.059l-0.014,0.03l-0.03,0.06h-0.014l-0.03,0.059v0.029l-0.03,0.061l0,0l-0.044,0.059l0,0l-0.046,0.088l0,0l-0.028,0.059    l-0.06,0.059l0,0l-0.088,0.148l0,0l-0.046,0.059h-0.014l-0.03,0.061h-0.014l-0.046,0.058v0.03l-0.043,0.029l-0.014,0.029    l-0.044,0.03l-0.016,0.029l-0.03,0.028l-0.03,0.03l-0.028,0.03l-0.03,0.029l-0.03,0.029l-0.03,0.029l-0.03,0.029h-0.028    l-0.03,0.029l-0.03,0.03l-0.03,0.03l-0.03,0.029l-0.03,0.028l-0.028,0.03h-0.03l-0.03,0.059h-0.03l-0.044,0.03l-0.016,0.029    l-0.058,0.028h-0.016l-0.044,0.03l-0.03,0.03l-0.044,0.029h-0.014l-0.06,0.029l0,0l-0.06,0.059h-0.014l-0.074,0.029l0,0    l-0.06,0.03h-0.014l-0.074,0.03l0,0l-0.06,0.059l0,0l-0.088,0.029l-0.06,0.029h-0.014l-0.073,0.029l0,0l-0.06,0.03h-0.016h-0.074    v0.028h-0.074h-0.014l-0.147,0.06h-0.016h-0.058l-0.164,0.03l-0.03,0.029h-0.058h-0.016l-0.131,0.029h-0.03h-0.147h-0.03h-0.06    h-0.191h-0.074h-0.856c-4.148,0-8.179,0.502-12.03,1.446l-0.281,0.06l-0.325,0.088l0,0l-0.325,0.09l-0.295,0.058l-0.03,0.03    l-0.325,0.088l-0.237,0.059c-1.756,0.502-3.469,1.094-5.136,1.773l-0.133,0.057l-0.177,0.061c-0.693,0.295-1.402,0.59-2.081,0.915    l-0.06,0.03l-1.536,0.768h-0.058l-0.532,0.295h-0.03l-0.295,0.177l-0.221,0.117l-0.074,0.03l-0.311,0.177l-0.163,0.089    l-0.147,0.088l-0.295,0.148l-0.089,0.059l-0.206,0.118l-0.296,0.177h-0.014l-0.281,0.178l-0.235,0.147l-0.06,0.03l-0.281,0.177    l-0.191,0.118l-0.104,0.059l-0.281,0.178l-0.118,0.088l-0.177,0.118l-0.295,0.177l-0.045,0.029l-0.221,0.148l-0.295,0.206l0,0    l-0.281,0.177l-0.221,0.148l-0.06,0.06l-0.281,0.177l-0.147,0.117l-0.132,0.09l-0.281,0.207l-0.074,0.059l-0.207,0.146    l-0.267,0.207h-0.028l-0.237,0.207l-0.237,0.178l-0.044,0.029l-0.265,0.206l-0.177,0.118l-0.104,0.089l-0.265,0.207l-0.12,0.088    l-0.147,0.118l-0.265,0.207l-0.045,0.059l-0.206,0.178l-0.267,0.207l0,0l-0.251,0.234l-0.206,0.178l-0.06,0.029l-0.03,0.03    l-0.472,0.413l-0.267,0.236l-0.087,0.088l-0.147,0.148l-0.502,0.473l-0.237,0.207l-0.014,0.029l-0.251,0.236l-0.163,0.146    l-0.074,0.09l-0.251,0.234l-0.104,0.09l-0.132,0.147l-0.251,0.236l-0.045,0.059l-0.191,0.177l-0.221,0.267h-0.016l-0.221,0.235    l-0.191,0.207l-0.044,0.03l-0.223,0.265l-0.147,0.148l-0.088,0.117l-0.237,0.236l-0.074,0.089l-0.147,0.177l-0.221,0.236    l-0.03,0.061l-0.191,0.205l-0.06,0.059c-7.543,8.828-12.074,20.313-12.074,32.83c0,1.447,0.058,2.834,0.161,4.163    c0.12,1.446,0.297,2.834,0.502,4.134l0.06,0.648c-0.03,1.979-1.683,3.602-3.676,3.543l-0.398,0.03    c-13.875,0-26.437,5.58-35.574,14.613l-0.163,0.178c-9.137,9.151-14.807,21.788-14.807,35.752s5.669,26.601,14.807,35.752    c9.137,9.153,21.773,14.791,35.737,14.791h94.754l-2.525-31.56c-4.664-0.267-8.856-2.273-11.957-5.373    c-3.322-3.308-5.387-7.912-5.387-12.961c0-5.048,2.065-9.654,5.387-12.99c3.322-3.307,7.912-5.373,12.961-5.373h17.095v-51.369    c0-1.979,1.623-3.633,3.63-3.633c1.994,0,3.632,1.654,3.632,3.633v51.369h65.864v-51.369c0-1.979,1.625-3.633,3.633-3.633    c1.991,0,3.616,1.654,3.616,3.633v51.369h17.079c5.032,0,9.623,2.066,12.961,5.373c3.335,3.336,5.403,7.942,5.403,12.99    c0,5.049-2.068,9.653-5.39,12.961l-0.251,0.235C317.407,327.608,313.303,329.527,308.787,329.764z M254.124,413.256v30.495    c0,2.008-1.623,3.633-3.63,3.633c-1.994,0-3.63-1.625-3.63-3.633v-30.495h-40.698l-3.867-48.33c0-0.178-0.016-0.324-0.044-0.502    l-2.776-34.631h102.031l-2.775,34.689l-0.03,0.296v0.088l0,0l-3.867,48.39H254.124z M117.198,380.277    c1.993,0,3.63,1.624,3.63,3.631c0,1.979-1.637,3.631-3.63,3.631H83.806c-15.942,0-30.408-6.494-40.859-16.945    c-10.481-10.451-16.945-24.918-16.945-40.89c0-1.978,1.623-3.63,3.617-3.63c2.007,0,3.63,1.652,3.63,3.63    c0,13.964,5.668,26.601,14.807,35.753c9.151,9.151,21.787,14.82,35.751,14.82H117.198z M124.046,459.93    c-2.007,0-3.631-1.623-3.631-3.63c0-1.978,1.624-3.633,3.631-3.633h249.72c1.993,0,3.63,1.655,3.63,3.633    c0,2.007-1.637,3.63-3.63,3.63H124.046z M270.272,444.814c-2.007,0-3.63-1.623-3.63-3.631c0-1.979,1.623-3.632,3.63-3.632h172.8    c2.008,0,3.631,1.653,3.631,3.632c0,2.008-1.623,3.631-3.631,3.631H270.272z M460.757,444.814c-1.993,0-3.633-1.623-3.633-3.631    c0-1.979,1.64-3.632,3.633-3.632h21.609c2.008,0,3.633,1.653,3.633,3.632c0,2.008-1.625,3.631-3.633,3.631H460.757z     M114.216,445.287c-2.007,0-3.632-1.624-3.632-3.631c0-2.008,1.625-3.633,3.632-3.633h81.866c2.007,0,3.632,1.625,3.632,3.633    c0,2.007-1.625,3.631-3.632,3.631H114.216z M307.769,300.329h-20.607h-0.088h-0.104h-72.937h-0.089h-0.088h-20.637    c-3.041,0-5.815,1.239-7.823,3.247s-3.278,4.813-3.278,7.854s1.271,5.846,3.278,7.854c2.007,2.007,4.782,3.248,7.823,3.248h114.55    c2.981,0,5.698-1.182,7.689-3.102l0.149-0.146c2.021-2.008,3.262-4.813,3.262-7.854s-1.24-5.846-3.262-7.854    C313.613,301.568,310.81,300.329,307.769,300.329z" style="fill-rule:evenodd;clip-rule:evenodd;"></path></g></g><g id="Layer_1"></g></svg>